HIERARCHY
ROOT Pelvis
{
	OFFSET 0.000000 0.000000 0.000000
	CHANNELS 6 Xposition Yposition Zposition Xrotation Yrotation Zrotation
	JOINT LeftUpLeg_virtual
	{
		OFFSET 0.000000 0.000000 0.000000
		CHANNELS 3 Xrotation Yrotation Zrotation
		JOINT LeftUpLeg
		{
			OFFSET 18.735201 -5.666702 -4.541200
			CHANNELS 3 Xrotation Yrotation Zrotation
			JOINT LeftLeg
			{
				OFFSET -0.021200 -31.938179 0.493100
				CHANNELS 3 Xrotation Yrotation Zrotation
				JOINT LeftFoot
				{
					OFFSET 0.021200 -31.938179 -4.336299
					CHANNELS 3 Xrotation Yrotation Zrotation
					JOINT LeftToeBase
					{
						OFFSET 0.943001 -26.722000 15.023500
						CHANNELS 3 Xrotation Yrotation Zrotation
						End Site
						{
							OFFSET 0 0 0
						}
					}
				}
			}
		}
	}
	JOINT RightUpLeg_virtual
	{
		OFFSET 0.000000 0.000000 0.000000
		CHANNELS 3 Xrotation Yrotation Zrotation
		JOINT RightUpLeg
		{
			OFFSET -18.735201 -5.666702 -4.541200
			CHANNELS 3 Xrotation Yrotation Zrotation
			JOINT RightLeg
			{
				OFFSET 0.018946 -31.938133 0.493100
				CHANNELS 3 Xrotation Yrotation Zrotation
				JOINT RightFoot
				{
					OFFSET -0.018946 -31.938126 -4.336299
					CHANNELS 3 Xrotation Yrotation Zrotation
					JOINT RightToeBase
					{
						OFFSET -0.943001 -26.722004 15.023500
						CHANNELS 3 Xrotation Yrotation Zrotation
						End Site
						{
							OFFSET 0 0 0
						}
					}
				}
			}
		}
	}
	JOINT Hips_virtual
	{
		OFFSET 0.000000 0.000000 0.000000
		CHANNELS 3 Xrotation Yrotation Zrotation
		JOINT Hips
		{
			OFFSET -0.000000 -0.000000 -0.000000
			CHANNELS 3 Xrotation Yrotation Zrotation
			JOINT Spine
			{
				OFFSET 0.000000 10.199997 -0.299500
				CHANNELS 3 Xrotation Yrotation Zrotation
				JOINT Spine1
				{
					OFFSET 0.000000 11.900002 -1.516600
					CHANNELS 3 Xrotation Yrotation Zrotation
					JOINT Spine2
					{
						OFFSET 0.000000 13.600006 -2.842500
						CHANNELS 3 Xrotation Yrotation Zrotation
						JOINT Neck_virtual
						{
							OFFSET 0.000000 0.000000 0.000000
							CHANNELS 3 Xrotation Yrotation Zrotation
							JOINT Neck
							{
								OFFSET 0.000000 9.624100 -2.890100
								CHANNELS 3 Xrotation Yrotation Zrotation
								JOINT Head
								{
									OFFSET 0.000000 14.068802 -1.351900
									CHANNELS 3 Xrotation Yrotation Zrotation
									End Site
									{
										OFFSET 0 0 0
									}
								}
							}
						}
						JOINT LeftShoulder_virtual
						{
							OFFSET 0.000000 0.000000 0.000000
							CHANNELS 3 Xrotation Yrotation Zrotation
							JOINT LeftShoulder
							{
								OFFSET 15.263000 10.923401 -0.547700
								CHANNELS 3 Xrotation Yrotation Zrotation
								JOINT LeftArm
								{
									OFFSET 25.438599 -2.830597 -13.032500
									CHANNELS 3 Xrotation Yrotation Zrotation
									JOINT LeftForeArm
									{
										OFFSET 29.960503 0.000000 0.000000
										CHANNELS 3 Xrotation Yrotation Zrotation
										JOINT LeftHand
										{
											OFFSET 27.849251 0.000000 0.000000
											CHANNELS 3 Xrotation Yrotation Zrotation
											End Site
											{
												OFFSET 0 0 0
											}
										}
									}
								}
							}
						}
						JOINT RightShoulder_virtual
						{
							OFFSET 0.000000 0.000000 0.000000
							CHANNELS 3 Xrotation Yrotation Zrotation
							JOINT RightShoulder
							{
								OFFSET -15.263000 10.923401 -0.547700
								CHANNELS 3 Xrotation Yrotation Zrotation
								JOINT RightArm
								{
									OFFSET -25.438599 -2.830597 -13.032500
									CHANNELS 3 Xrotation Yrotation Zrotation
									JOINT RightForeArm
									{
										OFFSET -29.960503 0.000000 0.000000
										CHANNELS 3 Xrotation Yrotation Zrotation
										JOINT RightHand
										{
											OFFSET -27.849251 0.000000 0.000000
											CHANNELS 3 Xrotation Yrotation Zrotation
											End Site
											{
												OFFSET 0 0 0
											}
										}
									}
								}
							}
						}
					}
				}
			}
		}
	}
}
MOTION
Frames: 12
Frame Time: 0.03333333
0.243171 108.809784 2.888055 0.000000 0.000000 0.000000 -32.120583 -4.921442 2.460160 -78.628373 -0.065586 20.548431 42.763381 14.427526 -11.684355 -10.268786 18.645844 -12.519106 0.000000 0.000000 0.000000 -37.902280 4.298701 -1.003495 -75.932825 4.035946 -15.022390 46.280525 -18.828424 7.426450 -10.138951 -23.650686 8.673948 0.000000 0.000000 0.000000 -25.409907 -18.219473 -0.069236 -72.079389 6.271850 19.940563 2.907499 -0.036955 -1.427949 0.507524 0.083662 -0.877333 0.000000 0.000000 0.000000 1.869902 -0.192308 -2.870968 -1.755252 1.300593 -1.564555 0.000000 0.000000 0.000000 2.520952 -0.552253 0.810668 1.898660 -0.535703 -2.999860 8.222358 -32.940920 -49.933737 26.215268 -73.415525 17.386735 0.000000 0.000000 0.000000 1.791765 0.794158 -0.944471 0.905723 2.037916 7.056668 -13.596899 11.165384 72.030191 -164.905902 59.880378 171.154282 0.000000 0.000000 0.000000 
0.245041 108.808434 2.890751 0.000000 0.000000 0.000000 -32.126502 -4.914303 2.460877 -78.633454 -0.064784 20.547647 42.766461 14.422288 -11.683388 -10.266683 18.640616 -12.520748 0.000000 0.000000 0.000000 -37.902475 4.296743 -1.006630 -75.932852 4.036673 -15.024073 46.280901 -18.830702 7.427931 -10.139424 -23.653092 8.674333 0.000000 0.000000 0.000000 -25.412870 -18.225866 -0.070963 -72.077224 6.270971 19.937087 2.904398 -0.037638 -1.425786 0.505926 0.083377 -0.876202 0.000000 0.000000 0.000000 1.864683 -0.188534 -2.869310 -1.757483 1.303203 -1.563836 0.000000 0.000000 0.000000 2.517595 -0.553035 0.810502 1.896781 -0.538201 -3.001318 8.225199 -32.944089 -49.936466 26.218559 -73.415682 17.386474 0.000000 0.000000 0.000000 1.789105 0.794602 -0.943469 0.904654 2.040862 7.060015 -13.594939 11.161849 72.024481 -164.904918 59.890924 171.151181 0.000000 0.000000 0.000000 
0.247137 108.806900 2.893642 0.000000 0.000000 0.000000 -32.132826 -4.907804 2.461586 -78.638864 -0.064248 20.546862 42.771328 14.416089 -11.682640 -10.263035 18.634680 -12.523207 0.000000 0.000000 0.000000 -37.902844 4.295947 -1.009642 -75.933003 4.037766 -15.025743 46.282482 -18.832703 7.429510 -10.138834 -23.655327 8.674936 0.000000 0.000000 0.000000 -25.415633 -18.232253 -0.072682 -72.074219 6.270724 19.933875 2.901015 -0.038105 -1.423449 0.504087 0.083254 -0.874968 0.000000 0.000000 0.000000 1.857209 -0.184028 -2.867919 -1.760875 1.306310 -1.563213 0.000000 0.000000 0.000000 2.514173 -0.553335 0.810210 1.894907 -0.538798 -3.002753 8.229316 -32.949249 -49.936432 26.225855 -73.416734 17.390623 0.000000 0.000000 0.000000 1.786207 0.795109 -0.942432 0.903379 2.043221 7.063957 -13.592001 11.159382 72.017515 -164.905465 59.900978 171.149405 0.000000 0.000000 0.000000 
0.249405 108.805267 2.896709 0.000000 0.000000 0.000000 -32.139404 -4.902025 2.462314 -78.644499 -0.063995 20.546126 42.777857 14.409133 -11.682096 -10.257922 18.628211 -12.526335 0.000000 0.000000 0.000000 -37.903315 4.296300 -1.012435 -75.933201 4.039165 -15.027342 46.285245 -18.834443 7.431169 -10.137203 -23.657400 8.675713 0.000000 0.000000 0.000000 -25.418114 -18.238417 -0.074344 -72.070298 6.271312 19.931057 2.897371 -0.038346 -1.420993 0.502006 0.083300 -0.873646 0.000000 0.000000 0.000000 1.847698 -0.178950 -2.866835 -1.765318 1.309812 -1.562711 0.000000 0.000000 0.000000 2.510750 -0.553128 0.809778 1.893067 -0.537406 -3.004226 8.234813 -32.956086 -49.933648 26.236749 -73.418263 17.398749 0.000000 0.000000 0.000000 1.783109 0.795655 -0.941390 0.901916 2.044915 7.068329 -13.588166 11.158208 72.009680 -164.907514 59.910103 171.149104 0.000000 0.000000 0.000000 
0.251798 108.803627 2.899911 0.000000 0.000000 0.000000 -32.146097 -4.897042 2.463071 -78.650229 -0.064025 20.545469 42.785879 14.401691 -11.681714 -10.251477 18.621445 -12.529926 0.000000 0.000000 0.000000 -37.903848 4.297714 -1.014911 -75.933446 4.040797 -15.028810 46.289114 -18.835941 7.432893 -10.134596 -23.659331 8.676638 0.000000 0.000000 0.000000 -25.420270 -18.244156 -0.075905 -72.065456 6.272987 19.928798 2.893514 -0.038339 -1.418479 0.499693 0.083525 -0.872257 0.000000 0.000000 0.000000 1.836474 -0.173468 -2.866090 -1.770655 1.313600 -1.562348 0.000000 0.000000 0.000000 2.507396 -0.552400 0.809200 1.891292 -0.533999 -3.005799 8.241682 -32.964392 -49.928212 26.250847 -73.420203 17.410432 0.000000 0.000000 0.000000 1.779873 0.796222 -0.940384 0.900302 2.045909 7.072914 -13.583522 11.158535 72.001334 -164.911011 59.917916 171.150347 0.000000 0.000000 0.000000 
0.254290 108.802040 2.903174 0.000000 0.000000 0.000000 -32.152760 -4.892941 2.463861 -78.655926 -0.064343 20.544931 42.795155 14.394060 -11.681446 -10.243889 18.614629 -12.533737 0.000000 0.000000 0.000000 -37.904398 4.300049 -1.016976 -75.933692 4.042563 -15.030086 46.293964 -18.837267 7.434683 -10.131127 -23.661165 8.677667 0.000000 0.000000 0.000000 -25.422061 -18.249272 -0.077323 -72.059787 6.275998 19.927248 2.889525 -0.038057 -1.415972 0.497179 0.083941 -0.870821 0.000000 0.000000 0.000000 1.823953 -0.167751 -2.865700 -1.776684 1.317562 -1.562140 0.000000 0.000000 0.000000 2.504188 -0.551157 0.808469 1.889610 -0.528647 -3.007517 8.249788 -32.973981 -49.920285 26.267847 -73.422403 17.425375 0.000000 0.000000 0.000000 1.776593 0.796799 -0.939464 0.898589 2.046215 7.077447 -13.578175 11.160522 71.992858 -164.915887 59.924002 171.153189 0.000000 0.000000 0.000000 
0.256875 108.800598 2.906382 0.000000 0.000000 0.000000 -32.159256 -4.889837 2.464684 -78.661499 -0.064960 20.544529 42.805414 14.386573 -11.681250 -10.235369 18.608032 -12.537524 0.000000 0.000000 0.000000 -37.904927 4.303132 -1.018534 -75.933938 4.044361 -15.031100 46.299595 -18.838509 7.436525 -10.126958 -23.662974 8.678755 0.000000 0.000000 0.000000 -25.423468 -18.253633 -0.078564 -72.053517 6.280516 19.926546 2.885534 -0.037474 -1.413532 0.494519 0.084558 -0.869359 0.000000 0.000000 0.000000 1.810617 -0.161964 -2.865673 -1.783173 1.321588 -1.562093 0.000000 0.000000 0.000000 2.501221 -0.549429 0.807593 1.888053 -0.521520 -3.009399 8.258868 -32.984787 -49.910129 26.287552 -73.425087 17.443424 0.000000 0.000000 0.000000 1.773384 0.797385 -0.938686 0.896839 2.045893 7.081637 -13.572234 11.164289 71.984566 -164.922062 59.928100 171.157683 0.000000 0.000000 0.000000 
0.259575 108.799377 2.909363 0.000000 0.000000 0.000000 -32.165471 -4.887837 2.465553 -78.666847 -0.065895 20.544299 42.816403 14.379537 -11.681092 -10.226153 18.601919 -12.541054 0.000000 0.000000 0.000000 -37.905474 4.306808 -1.019477 -75.934211 4.046096 -15.031781 46.305804 -18.839731 7.438400 -10.122302 -23.664809 8.679842 0.000000 0.000000 0.000000 -25.424491 -18.257159 -0.079607 -72.047055 6.286562 19.926811 2.881716 -0.036573 -1.411216 0.491798 0.085382 -0.867890 0.000000 0.000000 0.000000 1.797001 -0.156270 -2.866002 -1.789870 1.325570 -1.562214 0.000000 0.000000 0.000000 2.498604 -0.547268 0.806584 1.886653 -0.512889 -3.011443 8.268591 -32.996774 -49.898060 26.309834 -73.428468 17.464480 0.000000 0.000000 0.000000 1.770386 0.797982 -0.938106 0.895111 2.045038 7.085181 -13.565808 11.169892 71.976711 -164.929452 59.929910 171.163817 0.000000 0.000000 0.000000 
0.262431 108.798470 2.911882 0.000000 0.000000 0.000000 -32.171356 -4.887009 2.466518 -78.671922 -0.067186 20.544280 42.827861 14.373261 -11.680949 -10.216480 18.596532 -12.544104 0.000000 0.000000 0.000000 -37.906064 4.310984 -1.019679 -75.934573 4.047683 -15.032041 46.312275 -18.841015 7.440280 -10.117412 -23.666708 8.680863 0.000000 0.000000 0.000000 -25.425150 -18.259891 -0.080449 -72.040901 6.293931 19.928078 2.878299 -0.035349 -1.409072 0.489130 0.086413 -0.866426 0.000000 0.000000 0.000000 1.783670 -0.150825 -2.866675 -1.796505 1.329402 -1.562504 0.000000 0.000000 0.000000 2.496483 -0.544747 0.805468 1.885453 -0.503100 -3.013625 8.278556 -33.009953 -49.884495 26.334510 -73.432873 17.488365 0.000000 0.000000 0.000000 1.767760 0.798598 -0.937775 0.893463 2.043765 7.087777 -13.559008 11.177330 71.969437 -164.938031 59.929364 171.171603 0.000000 0.000000 0.000000 
0.265496 108.797958 2.913627 0.000000 0.000000 0.000000 -32.176861 -4.887344 2.467685 -78.676655 -0.068876 20.544548 42.839534 14.368027 -11.680806 -10.206598 18.592125 -12.546477 0.000000 0.000000 0.000000 -37.906833 4.315669 -1.018993 -75.935161 4.049078 -15.031773 46.318685 -18.842424 7.442105 -10.112582 -23.668699 8.681734 0.000000 0.000000 0.000000 -25.425483 -18.261955 -0.081102 -72.035615 6.302131 19.930268 2.875563 -0.033811 -1.407133 0.486665 0.087647 -0.864977 0.000000 0.000000 0.000000 1.771210 -0.145772 -2.867674 -1.802806 1.332988 -1.562966 0.000000 0.000000 0.000000 2.495038 -0.541944 0.804277 1.884505 -0.492545 -3.015913 8.288361 -33.024269 -49.869974 26.361235 -73.438597 17.514770 0.000000 0.000000 0.000000 1.765695 0.799243 -0.937734 0.891939 2.042183 7.089150 -13.551962 11.186511 71.962709 -164.947812 59.926345 171.181029 0.000000 0.000000 0.000000 
0.268818 108.797943 2.914206 0.000000 0.000000 0.000000 -32.182031 -4.888769 2.469234 -78.681047 -0.071040 20.545194 42.851176 14.364098 -11.680658 -10.196747 18.588901 -12.548000 0.000000 0.000000 0.000000 -37.907973 4.320941 -1.017262 -75.936172 4.050264 -15.030869 46.324662 -18.844000 7.443803 -10.108149 -23.670768 8.682356 0.000000 0.000000 0.000000 -25.425538 -18.263578 -0.081602 -72.031715 6.310401 19.933163 2.873836 -0.031972 -1.405417 0.484585 0.089083 -0.863536 0.000000 0.000000 0.000000 1.760203 -0.141225 -2.868980 -1.808499 1.336244 -1.563599 0.000000 0.000000 0.000000 2.494488 -0.538941 0.803049 1.883886 -0.481632 -3.018282 8.297625 -33.039544 -49.855142 26.389360 -73.445885 17.543047 0.000000 0.000000 0.000000 1.764409 0.799932 -0.938011 0.890585 2.040370 7.089079 -13.544804 11.197171 71.956309 -164.958863 59.920997 171.192012 0.000000 0.000000 0.000000 
0.272434 108.798546 2.913140 0.000000 0.000000 0.000000 -32.186932 -4.891198 2.471422 -78.685132 -0.073795 20.546355 42.862538 14.361709 -11.680505 -10.187178 18.587052 -12.548522 0.000000 0.000000 0.000000 -37.909794 4.326904 -1.014347 -75.937879 4.051251 -15.029230 46.329808 -18.845762 7.445276 -10.104479 -23.672893 8.682621 0.000000 0.000000 0.000000 -25.425367 -18.264986 -0.081991 -72.029652 6.317764 19.936368 2.873492 -0.029835 -1.403913 0.483102 0.090725 -0.862088 0.000000 0.000000 0.000000 1.751208 -0.137259 -2.870566 -1.813323 1.339109 -1.564397 0.000000 0.000000 0.000000 2.495098 -0.535805 0.801831 1.883696 -0.470764 -3.020707 8.305968 -33.055513 -49.840734 26.418005 -73.454839 17.572297 0.000000 0.000000 0.000000 1.764148 0.800687 -0.938616 0.889450 2.038361 7.087424 -13.537726 11.208784 71.949780 -164.971226 59.913607 171.204374 0.000000 0.000000 0.000000 
